# xmcd CD database file
#
# Track frame offsets:
#	150
#	2236
#	22103
#	40895
#	42733
#	65861
#	86494
#	113059
#	129384
#	155918
#	164276
#	208838
#
# Disc length: 2964 seconds
#
# Revision: 0
# Processed by: cddbd v1.5.2PL0 Copyright (c) Steve Scherf et al.
# Submitted via: CDex 1.51
#
DISCID=ad0b920c
DTITLE=Peter Brötzmann - Wolke in Hosen
DYEAR=1976
DGENRE=Jazz
TTITLE0=brunches
TTITLE1=two birds in a feather
TTITLE2=piece for two clarinets
TTITLE3=wolke in hosen
TTITLE4=der grieche
TTITLE5=blue balls
TTITLE6=scrambag
TTITLE7=piece for two clarinets
TTITLE8=humpty dumpty
TTITLE9=jack-in-the-box
TTITLE10=twee (D) dldum
TTITLE11=eine kleine marschmusik
EXTD=YEAR: 1976
EXTT0=
EXTT1=
EXTT2=
EXTT3=
EXTT4=
EXTT5=
EXTT6=
EXTT7=
EXTT8=
EXTT9=
EXTT10=
EXTT11=
PLAYORDER=
